<?xml version="1.0" standalone="no"?><!DOCTYPE svg PUBLIC "-//W3C//DTD SVG 1.1//EN" "http://www.w3.org/Graphics/SVG/1.1/DTD/svg11.dtd"><svg t="1657092686447" class="icon" viewBox="0 0 1024 1024" version="1.1" xmlns="http://www.w3.org/2000/svg" p-id="5850" width="16" height="16" xmlns:xlink="http://www.w3.org/1999/xlink"><defs><style type="text/css"></style></defs><path d="M153.166102 104.135593C474.597966 271.27322 844.279322 624.813559 896.867797 1001.957966a25.51322 25.51322 0 0 0 18.397288 21.000678 24.124746 24.124746 0 0 0 10.587118 0 25.51322 25.51322 0 0 0 21.694916-28.810847c-55.018305-395.715254-438.063729-763.661017-770.60339-937.220339a26.207458 26.207458 0 0 0-11.802034-2.77695A25.51322 25.51322 0 0 0 153.166102 104.135593z" fill="#707070" p-id="5851"></path><path d="M934.877288 819.720678c31.067119-109.342373 95.631186-337.052203-132.252203-531.959322C650.24 153.079322 453.770847 78.275254 316.658983 39.050847A1041.355932 1041.355932 0 0 0 83.221695 0h-7.115932C68.989831 0 60.485424 2.082712 57.534915 7.289492s2.429831 21.000678 4.859661 25.166101c86.779661 107.60678 117.67322 219.378983 146.484068 343.473899 28.11661 112.987119 57.101017 229.618983 145.616271 345.903728 93.548475 125.309831 232.222373 179.28678 306.679322 200.461017 66.47322 18.744407 156.20339 32.629153 213.477966 17.355932-4.686102-17.355932-10.413559-33.496949-16.141017-48.42305-31.240678 9.372203-100.143729 8.157288-187.444067-17.355933-84.176271-23.430508-201.328814-74.630508-280.818983-181.369491S284.724068 485.966102 256.08678 369.160678l-1.562034-6.074576C233.524068 277.694915 212.52339 190.915254 164.794576 101.185085a135.896949 135.896949 0 0 0-7.463051-17.355932l-9.025084-17.355933 18.917966 5.20678c21.868475 5.901017 55.886102 11.281356 88.688813 17.355932a867.79661 867.79661 0 0 1 86.779661 17.355932c118.888136 36.447458 288.629153 105.00339 425.220339 220.593899 179.981017 152.905763 160.715932 317.960678 129.475255 429.90644a1721.708475 1721.708475 0 0 1 31.414237 82.787797z" p-id="5852" fill="#707070"></path></svg>