<?xml version="1.0" standalone="no"?><!DOCTYPE svg PUBLIC "-//W3C//DTD SVG 1.1//EN" "http://www.w3.org/Graphics/SVG/1.1/DTD/svg11.dtd"><svg t="1657092297782" class="icon" viewBox="0 0 1024 1024" version="1.1" xmlns="http://www.w3.org/2000/svg" p-id="2341" width="16" height="16" xmlns:xlink="http://www.w3.org/1999/xlink"><defs><style type="text/css"></style></defs><path d="M512.736 992a483.648 483.648 0 0 1-164.672-28.8 36.88 36.88 0 1 1 25.104-69.36 407.456 407.456 0 1 0-184.608-136.512A36.912 36.912 0 0 1 129.488 801.6a473.424 473.424 0 0 1-97.472-290A480 480 0 1 1 512.736 992z" p-id="2342" fill="#8a8a8a"></path><path d="M685.6 638.592a32 32 0 0 1-14.032-2.96l-178.048-73.888a36.8 36.8 0 0 1-22.912-34.016V236.672a36.944 36.944 0 1 1 73.888 0v266.72l155.2 64.272a36.336 36.336 0 0 1 19.952 48 37.616 37.616 0 0 1-34.048 22.928z" p-id="2343" fill="#8a8a8a"></path></svg>